# Blender v2.78 (sub 0) OBJ File: "Rena'sWeapon.blend"
# www.blender.org
o Cube
v 1.038292 3.263922 -0.175559
v 1.038292 3.263922 0.175559
v -0.312692 3.296160 0.175559
v -0.312692 3.296160 -0.175559
v 0.997457 7.574058 -0.175559
v 0.997456 7.574058 0.175559
v -0.327480 7.574058 0.175559
v -0.327479 7.574058 -0.175559
v 1.032686 9.095296 -0.175559
v 1.032686 9.095296 0.175559
v -0.346762 9.110627 0.175559
v -0.346762 9.110627 -0.175559
v 1.350283 11.346307 -0.175559
v 1.350282 11.346307 0.175559
v -0.305333 11.022509 0.175559
v -0.305333 11.022509 -0.175559
v 0.307410 3.218231 -0.175559
v 0.307410 3.218231 0.175559
v -0.311075 3.216400 0.175559
v -0.311075 3.216400 -0.175559
v 0.308783 2.754566 -0.175559
v 0.308783 2.754566 0.175559
v -0.309703 2.752734 0.175559
v -0.309702 2.752734 -0.175559
v 1.841339 3.313946 -0.010056
v 1.841339 3.313946 0.010059
v 1.798039 7.545218 -0.010056
v 1.798039 7.545218 0.010059
v 1.833269 9.066456 -0.010056
v 1.833268 9.066456 0.010059
v 3.092042 11.815737 -0.010056
v 3.092041 11.815737 0.010059
v 1.138551 9.845634 -0.175559
v 1.244417 10.595971 -0.175559
v 1.244416 10.595969 0.175559
v 1.138551 9.845634 0.175559
v 2.017779 10.013546 -0.010056
v 2.391376 10.950415 -0.010056
v 2.391375 10.950415 0.010059
v 2.017778 10.013546 0.010059
v -0.436285 1.723379 0.276555
v -0.436285 2.122388 0.276555
v -0.436285 1.723379 -0.283234
v -0.436285 2.122388 -0.283234
v 0.549840 1.723379 0.276555
v 0.549840 2.122388 0.276555
v 0.549840 1.723379 -0.283234
v 0.549840 2.122388 -0.283234
v -0.383539 1.877599 0.224791
v -0.383539 2.758889 0.223537
v -0.383539 1.877599 -0.231471
v -0.383539 2.758889 -0.230216
v 0.497752 1.877599 0.224874
v 0.497752 2.758889 0.223537
v 0.497752 1.877599 -0.231553
v 0.497752 2.758889 -0.230216
v -0.426616 0.964855 -0.241612
v -0.426616 0.964855 0.234933
v 0.497752 0.964855 -0.241800
v 0.497752 0.964855 0.235121
v -0.479212 -0.024098 -0.260017
v -0.479212 -0.024098 0.253338
v 0.497752 -0.024098 -0.260227
v 0.497752 -0.024098 0.253548
v -0.483027 -1.147181 -0.283678
v -0.483027 -1.147181 0.276999
v 0.569547 -1.147181 -0.283916
v 0.569547 -1.147181 0.277237
v -0.483027 -2.553172 -0.305866
v -0.483027 -2.553172 0.299187
v 0.669263 -2.553172 -0.306010
v 0.669263 -2.553172 0.299331
v -0.535623 -3.267023 -0.309449
v -0.535623 -3.267023 0.302770
v 0.684359 -3.248561 -0.309449
v 0.684359 -3.248561 0.302770
v -0.326048 10.066567 0.175559
v -0.326047 10.066567 -0.175559
v -0.315690 10.544538 -0.175559
v -0.315691 10.544538 0.175559
vt 0.4539 0.0496
vt 0.3281 0.0515
vt 0.3283 0.0440
vt 0.3859 0.0447
vt 0.9956 0.0509
vt 0.9956 0.4492
vt 0.9630 0.4492
vt 0.9629 0.0509
vt 0.1754 0.0504
vt 0.1874 0.4516
vt 0.1113 0.4504
vt 0.0992 0.0566
vt 0.4466 0.4508
vt 0.3232 0.4497
vt 0.9957 0.5923
vt 0.9630 0.5923
vt 0.4723 0.9147
vt 0.4723 0.8822
vt 0.6393 0.8964
vt 0.6393 0.8993
vt 0.5302 0.0549
vt 0.5227 0.4488
vt 0.3108 0.4490
vt 0.3156 0.5920
vt 0.1871 0.5933
vt 0.4486 0.5925
vt 0.3201 0.5927
vt 0.3161 0.9147
vt 0.3161 0.8822
vt 0.4577 0.6625
vt 0.5247 0.5904
vt 0.5409 0.6788
vt 0.9956 0.0434
vt 0.9629 0.0435
vt 0.9629 0.0003
vt 0.9956 0.0003
vt 0.7309 0.6192
vt 0.7309 0.6519
vt 0.6627 0.6519
vt 0.6627 0.6192
vt 0.3012 0.0508
vt 0.2434 0.0448
vt 0.3009 0.0434
vt 0.6195 0.6519
vt 0.6195 0.6192
vt 0.2424 0.0016
vt 0.2999 0.0003
vt 0.3289 0.0009
vt 0.3864 0.0015
vt 0.9962 0.1377
vt 0.9986 0.1377
vt 0.9992 0.2751
vt 0.9968 0.2751
vt 0.9968 0.5103
vt 0.9992 0.5103
vt 0.9992 0.6431
vt 0.9968 0.6431
vt 0.1109 0.5921
vt 0.1704 0.7335
vt 0.1621 0.8035
vt 0.0003 0.8511
vt 0.0632 0.7687
vt 0.8058 0.6347
vt 0.8058 0.6365
vt 0.1787 0.6634
vt 0.0958 0.6806
vt 0.9992 0.3901
vt 0.9968 0.3901
vt 0.4760 0.8025
vt 0.4669 0.7325
vt 0.5745 0.7665
vt 0.6384 0.8481
vt 0.9630 0.7258
vt 0.9630 0.6813
vt 0.9957 0.6813
vt 0.9957 0.7258
vt 0.6186 0.7819
vt 0.6186 0.7448
vt 0.6707 0.7448
vt 0.6707 0.7819
vt 0.6733 0.7853
vt 0.6733 0.7497
vt 0.7612 0.7497
vt 0.7612 0.7853
vt 0.7865 0.5815
vt 0.7865 0.6186
vt 0.7344 0.6186
vt 0.7344 0.5815
vt 0.7643 0.7857
vt 0.7643 0.8229
vt 0.6725 0.8229
vt 0.6725 0.7857
vt 0.6187 0.7445
vt 0.6187 0.6527
vt 0.6708 0.6527
vt 0.6708 0.7445
vt 0.7633 0.7040
vt 0.6715 0.7040
vt 0.6715 0.6519
vt 0.7633 0.6519
vt 0.8976 0.4797
vt 0.8975 0.5618
vt 0.8552 0.5618
vt 0.8551 0.4797
vt 0.8259 0.4791
vt 0.8246 0.5611
vt 0.7426 0.5599
vt 0.7438 0.4778
vt 0.9551 0.4781
vt 0.9550 0.5602
vt 0.9128 0.5602
vt 0.9126 0.4781
vt 0.7230 0.4778
vt 0.7242 0.5599
vt 0.6422 0.5611
vt 0.6409 0.4791
vt 0.6356 0.3942
vt 0.7217 0.3929
vt 0.7554 0.7475
vt 0.6733 0.7475
vt 0.6733 0.7052
vt 0.7554 0.7052
vt 0.9561 0.3931
vt 0.9117 0.3931
vt 0.9100 0.3011
vt 0.9578 0.3011
vt 0.8541 0.3946
vt 0.8985 0.3946
vt 0.7451 0.3929
vt 0.8312 0.3942
vt 0.9078 0.1963
vt 0.9600 0.1963
vt 0.6293 0.3022
vt 0.7203 0.3008
vt 0.8524 0.3024
vt 0.9002 0.3024
vt 0.7465 0.3008
vt 0.8374 0.3022
vt 0.9057 0.0650
vt 0.9621 0.0650
vt 0.6274 0.1976
vt 0.7254 0.1961
vt 0.8502 0.1978
vt 0.9024 0.1978
vt 0.7414 0.1961
vt 0.8394 0.1976
vt 0.9054 0.0003
vt 0.9624 0.0003
vt 0.6254 0.0667
vt 0.7327 0.0650
vt 0.8482 0.0669
vt 0.9045 0.0669
vt 0.7341 0.0650
vt 0.8414 0.0667
vt 0.6195 0.5617
vt 0.7331 0.5617
vt 0.7331 0.6187
vt 0.6195 0.6187
vt 0.6195 0.0003
vt 0.7331 0.0003
vt 0.8478 0.0003
vt 0.9048 0.0003
vt 0.7337 0.0003
vt 0.8473 0.0003
vt 0.3155 0.6810
vt 0.3156 0.7700
vt 0.3156 0.7255
vt 0.9957 0.7703
vt 0.9630 0.7703
vt 0.3211 0.6817
vt 0.3217 0.7262
vt 0.9997 0.0003
vt 0.9973 0.0003
vt 0.3222 0.7708
vn -0.0000 0.0000 1.0000
vn -1.0000 -0.0035 -0.0000
vn 0.2021 0.0020 -0.9794
vn -0.9999 -0.0125 -0.0000
vn -0.2602 0.9655 -0.0000
vn 0.2021 0.0020 0.9794
vn 0.0000 -0.0000 -1.0000
vn -0.1919 0.9814 0.0000
vn 0.1959 -0.0335 0.9801
vn -1.0000 -0.0030 -0.0000
vn 0.0624 -0.9981 0.0000
vn -0.9998 -0.0203 -0.0000
vn 1.0000 0.0030 0.0000
vn 0.9997 -0.0232 0.0000
vn 0.7772 -0.6293 0.0000
vn 0.2023 -0.0047 -0.9793
vn 0.1321 -0.0660 -0.9890
vn 0.0622 -0.9981 0.0000
vn 0.2023 -0.0047 0.9793
vn 0.1959 -0.0335 -0.9801
vn 0.1734 -0.0493 -0.9836
vn 0.9815 -0.1912 0.0000
vn 0.9289 -0.3704 0.0000
vn 0.1321 -0.0660 0.9890
vn 0.1734 -0.0493 0.9836
vn -0.9998 0.0217 -0.0000
vn -1.0000 0.0000 0.0000
vn 1.0000 0.0000 0.0000
vn 0.0000 -1.0000 0.0000
vn 0.0000 1.0000 0.0000
vn -0.0000 0.0015 -1.0000
vn -0.0000 0.0015 1.0000
vn -0.0001 0.0112 0.9999
vn -0.9989 0.0471 0.0000
vn -0.0001 0.0112 -0.9999
vn 0.9980 0.0638 0.0000
vn -0.0002 0.0186 0.9998
vn -0.9986 0.0531 0.0000
vn -0.0002 0.0186 -0.9998
vn 0.9975 0.0707 0.0000
vn -0.0002 0.0211 0.9998
vn -1.0000 0.0034 0.0000
vn -0.0002 0.0211 -0.9998
vn 0.9998 0.0217 0.0000
vn -0.0002 0.0157 0.9999
vn -0.0002 0.0157 -0.9999
vn 0.0151 -0.9999 0.0000
vn -0.0001 0.0050 1.0000
vn -0.9973 0.0735 0.0000
vn -0.0001 0.0050 -1.0000
vn 0.9999 0.0102 0.0000
usemtl None
s off
f 2/1/1 3/2/1 19/3/1 18/4/1
f 3/5/2 7/6/2 8/7/2 4/8/2
f 1/9/3 5/10/3 27/11/3 25/12/3
f 2/1/1 6/13/1 7/14/1 3/2/1
f 8/7/4 7/6/4 11/15/4 12/16/4
f 13/17/5 14/18/5 32/19/5 31/20/5
f 6/13/6 2/1/6 26/21/6 28/22/6
f 5/10/7 8/23/7 12/24/7 9/25/7
f 7/14/1 6/13/1 10/26/1 11/27/1
f 13/17/8 16/28/8 15/29/8 14/18/8
f 36/30/9 10/26/9 30/31/9 40/32/9
f 19/33/10 20/34/10 24/35/10 23/36/10
f 1/37/11 2/38/11 18/39/11 17/40/11
f 3/5/12 4/8/12 20/34/12 19/33/12
f 4/41/7 1/9/7 17/42/7 20/43/7
f 17/40/13 18/39/13 22/44/13 21/45/13
f 20/43/7 17/42/7 21/46/7 24/47/7
f 18/4/1 19/3/1 23/48/1 22/49/1
f 28/50/14 27/51/14 29/52/14 30/53/14
f 39/54/15 38/55/15 31/56/15 32/57/15
f 5/10/16 9/25/16 29/58/16 27/11/16
f 34/59/17 13/60/17 31/61/17 38/62/17
f 2/38/18 1/37/18 25/63/18 26/64/18
f 10/26/19 6/13/19 28/22/19 30/31/19
f 9/25/20 33/65/20 37/66/20 29/58/20
f 33/65/21 34/59/21 38/62/21 37/66/21
f 30/53/22 29/52/22 37/67/22 40/68/22
f 40/68/23 37/67/23 38/55/23 39/54/23
f 14/69/24 35/70/24 39/71/24 32/72/24
f 35/70/25 36/30/25 40/32/25 39/71/25
f 79/73/26 78/74/26 77/75/26 80/76/26
f 4/41/7 8/23/7 5/10/7 1/9/7
f 41/77/27 42/78/27 44/79/27 43/80/27
f 43/81/7 44/82/7 48/83/7 47/84/7
f 47/85/28 48/86/28 46/87/28 45/88/28
f 45/89/1 46/90/1 42/91/1 41/92/1
f 43/93/29 47/94/29 45/95/29 41/96/29
f 48/97/30 44/98/30 42/99/30 46/100/30
f 49/101/27 50/102/27 52/103/27 51/104/27
f 51/105/31 52/106/31 56/107/31 55/108/31
f 55/109/28 56/110/28 54/111/28 53/112/28
f 53/113/32 54/114/32 50/115/32 49/116/32
f 53/113/33 49/116/33 58/117/33 60/118/33
f 56/119/30 52/120/30 50/121/30 54/122/30
f 59/123/28 60/124/28 64/125/28 63/126/28
f 55/109/28 53/112/28 60/124/28 59/123/28
f 49/101/34 51/104/34 57/127/34 58/128/34
f 51/105/35 55/108/35 59/129/35 57/130/35
f 63/126/36 64/125/36 68/131/36 67/132/36
f 60/118/37 58/117/37 62/133/37 64/134/37
f 58/128/38 57/127/38 61/135/38 62/136/38
f 57/130/39 59/129/39 63/137/39 61/138/39
f 67/132/40 68/131/40 72/139/40 71/140/40
f 64/134/41 62/133/41 66/141/41 68/142/41
f 62/136/42 61/135/42 65/143/42 66/144/42
f 61/138/43 63/137/43 67/145/43 65/146/43
f 71/140/44 72/139/44 76/147/44 75/148/44
f 68/142/45 66/141/45 70/149/45 72/150/45
f 66/144/27 65/143/27 69/151/27 70/152/27
f 65/146/46 67/145/46 71/153/46 69/154/46
f 73/155/47 75/156/47 76/157/47 74/158/47
f 72/150/48 70/149/48 74/159/48 76/160/48
f 70/152/49 69/151/49 73/161/49 74/162/49
f 69/154/50 71/153/50 75/163/50 73/164/50
f 12/24/7 78/165/7 33/65/7 9/25/7
f 16/166/7 13/60/7 34/59/7 79/167/7
f 33/65/7 78/165/7 79/167/7 34/59/7
f 15/168/26 16/169/26 79/73/26 80/76/26
f 11/27/1 10/26/1 36/30/1 77/170/1
f 35/70/1 80/171/1 77/170/1 36/30/1
f 12/16/26 11/15/26 77/75/26 78/74/26
f 25/172/51 27/51/51 28/50/51 26/173/51
f 15/174/1 80/171/1 35/70/1 14/69/1
